<?xml version="1.0" standalone="no"?>
<!DOCTYPE svg PUBLIC "-//W3C//DTD SVG 20010904//EN"
 "http://www.w3.org/TR/2001/REC-SVG-20010904/DTD/svg10.dtd">
<svg version="1.0" xmlns="http://www.w3.org/2000/svg"
 width="1024.000000pt" height="1024.000000pt" viewBox="0 0 1024.000000 1024.000000"
 preserveAspectRatio="xMidYMid meet">

<g transform="translate(0.000000,1024.000000) scale(0.100000,-0.100000)"
fill="#000000" stroke="none">
<path d="M0 5120 l0 -5120 5120 0 5120 0 0 5120 0 5120 -5120 0 -5120 0 0
-5120z m6270 1798 c55 -38 75 -73 75 -133 0 -63 -21 -98 -81 -133 -55 -32
-137 -27 -189 12 -90 69 -83 187 15 254 25 16 47 22 90 22 43 0 65 -6 90 -22z
m600 -783 l0 -805 -145 0 -145 0 0 800 0 799 68 4 c37 2 102 4 145 5 l77 2 0
-805z m-4229 245 c185 -482 198 -513 209 -485 6 17 95 249 198 518 l186 487
193 0 193 0 0 -785 0 -785 -135 0 -135 0 -2 599 -3 598 -215 -583 -215 -584
-81 0 -81 0 -219 587 -219 587 -3 -602 -2 -602 -135 0 -135 0 0 785 0 785 202
-2 202 -3 197 -515z m5134 95 c259 -66 414 -282 415 -577 0 -191 -50 -328
-160 -438 -117 -117 -258 -166 -450 -157 -78 4 -122 11 -174 30 -176 65 -302
211 -341 394 -19 88 -19 239 0 328 44 208 197 372 391 419 80 19 245 20 319 1z
m-2307 -198 c4 23 125 144 171 171 38 22 60 27 138 30 l93 4 0 -133 0 -134
-98 0 c-86 0 -103 -3 -155 -29 -38 -18 -69 -42 -88 -69 -55 -76 -59 -109 -59
-464 l0 -323 -145 0 -145 0 0 570 0 569 138 3 137 3 6 -105 c3 -58 6 -100 7
-93z m-1278 -194 c0 -240 4 -402 11 -426 12 -46 58 -100 99 -117 45 -18 139
-8 196 21 55 28 108 91 124 147 6 22 10 181 10 400 l0 362 143 0 142 0 -2
-572 -3 -573 -132 0 -133 0 3 95 2 95 -22 -30 c-89 -121 -212 -185 -359 -185
-194 0 -323 107 -358 296 -7 35 -11 221 -11 466 l0 408 145 0 145 0 0 -387z
m2130 -183 l0 -570 -140 0 -140 0 0 570 0 570 140 0 140 0 0 -570z m965 -919
c45 -26 75 -76 75 -128 0 -55 -20 -94 -67 -130 -31 -24 -46 -28 -99 -28 -70 0
-102 17 -141 75 -44 63 -23 163 42 206 53 35 133 37 190 5z m-3683 -46 c191
-40 339 -172 383 -340 17 -67 19 -199 4 -264 -29 -127 -130 -252 -250 -309
-106 -51 -175 -63 -381 -69 l-188 -6 0 -273 0 -274 -145 0 -145 0 0 775 0 775
328 0 c245 0 344 -4 394 -15z m2130 -255 l-3 -150 155 0 156 0 0 -115 0 -115
-155 0 -155 0 4 -295 c5 -332 9 -350 74 -381 28 -13 52 -15 112 -11 42 3 82 9
90 12 13 4 15 -13 15 -107 l0 -112 -30 -9 c-47 -14 -284 -14 -332 1 -71 21
-135 73 -166 134 -39 76 -46 147 -47 481 l0 287 -90 0 -90 0 0 115 0 115 90 0
90 0 0 150 0 150 143 0 142 0 -3 -150z m-937 -145 c83 -22 151 -61 216 -125
96 -96 138 -213 143 -402 l4 -118 -391 0 -390 0 6 -55 c7 -66 49 -148 94 -182
49 -38 100 -52 184 -53 115 0 182 29 239 104 l26 34 99 -39 c55 -21 106 -41
113 -44 32 -12 -74 -140 -163 -197 -92 -60 -178 -82 -315 -83 -131 0 -183 12
-283 63 -179 92 -277 276 -277 522 0 290 141 504 374 571 79 23 241 24 321 4z
m1713 -109 c-2 -53 -1 -96 2 -96 3 0 14 16 25 36 29 54 127 139 181 158 26 9
78 16 116 16 l68 0 0 -132 0 -133 -103 0 c-90 0 -107 -3 -147 -25 -50 -28
-104 -93 -121 -148 -9 -25 -14 -147 -16 -374 l-4 -338 -140 0 -139 0 0 570 0
569 133 3 c72 2 136 0 140 -3 5 -4 7 -50 5 -103z m842 -461 l0 -565 -145 0
-145 0 0 565 0 565 145 0 145 0 0 -565z"/>
<path d="M7530 6245 c-67 -21 -122 -73 -156 -147 -27 -60 -29 -70 -29 -198 0
-156 14 -212 71 -279 57 -66 104 -86 204 -86 96 0 140 17 197 77 58 60 76 118
81 255 4 103 1 132 -16 190 -38 124 -122 193 -240 199 -41 2 -85 -2 -112 -11z"/>
<path d="M3170 4450 l0 -263 163 6 c194 6 240 19 307 86 73 73 92 189 46 286
-28 61 -56 87 -121 117 -45 21 -68 23 -222 26 l-173 4 0 -262z"/>
<path d="M4548 4316 c-79 -28 -130 -81 -154 -162 -24 -80 -43 -74 242 -74
l257 0 -6 45 c-13 91 -78 173 -154 194 -52 15 -140 13 -185 -3z"/>
</g>
</svg>
